<svg class="lds-gear" width="200px"  height="200px"  xmlns="http://www.w3.org/2000/svg" xmlns:xlink="http://www.w3.org/1999/xlink" viewBox="0 0 100 100" preserveAspectRatio="xMidYMid" style="background: none;"><g transform="translate(50 50)">
<g transform="rotate(147.951)">
<animateTransform attributeName="transform" type="rotate" values="0;360" keyTimes="0;1" dur="1.5s" repeatCount="indefinite"></animateTransform><path d="M39.68626966596886 -5 L47.68626966596886 -5 L47.68626966596886 5 L39.68626966596886 5 A40 40 0 0 1 36.8693177121688 15.513007814062235 L36.8693177121688 15.513007814062235 L43.79752094244431 19.513007814062235 L38.79752094244431 28.17326185190662 L31.8693177121688 24.17326185190662 A40 40 0 0 1 24.17326185190663 31.869317712168797 L24.17326185190663 31.869317712168797 L28.17326185190663 38.79752094244431 L19.513007814062238 43.79752094244431 L15.513007814062238 36.8693177121688 A40 40 0 0 1 5.000000000000004 39.68626966596886 L5.000000000000004 39.68626966596886 L5.000000000000005 47.68626966596886 L-4.999999999999999 47.68626966596886 L-5 39.68626966596886 A40 40 0 0 1 -15.513007814062226 36.86931771216881 L-15.513007814062226 36.86931771216881 L-19.513007814062224 43.797520942444315 L-28.173261851906613 38.797520942444315 L-24.173261851906616 31.869317712168804 A40 40 0 0 1 -31.869317712168787 24.173261851906638 L-31.869317712168787 24.173261851906638 L-38.797520942444294 28.17326185190664 L-43.7975209424443 19.513007814062252 L-36.869317712168794 15.513007814062249 A40 40 0 0 1 -39.68626966596886 5.000000000000007 L-39.68626966596886 5.000000000000007 L-47.68626966596886 5.000000000000008 L-47.68626966596886 -4.9999999999999964 L-39.68626966596886 -4.999999999999997 A40 40 0 0 1 -36.86931771216881 -15.513007814062224 L-36.86931771216881 -15.513007814062224 L-43.79752094244432 -19.51300781406222 L-38.797520942444315 -28.173261851906613 L-31.869317712168804 -24.173261851906616 A40 40 0 0 1 -24.173261851906638 -31.869317712168787 L-24.173261851906638 -31.869317712168787 L-28.17326185190664 -38.797520942444294 L-19.513007814062256 -43.7975209424443 L-15.513007814062252 -36.869317712168794 A40 40 0 0 1 -5.00000000000001 -39.68626966596886 L-5.00000000000001 -39.68626966596886 L-5.0000000000000115 -47.68626966596886 L4.999999999999993 -47.68626966596886 L4.999999999999995 -39.68626966596886 A40 40 0 0 1 15.513007814062206 -36.869317712168815 L15.513007814062206 -36.869317712168815 L19.513007814062203 -43.79752094244433 L28.173261851906595 -38.79752094244433 L24.1732618519066 -31.86931771216882 A40 40 0 0 1 31.869317712168787 -24.17326185190664 L31.869317712168787 -24.17326185190664 L38.797520942444294 -28.173261851906645 L43.7975209424443 -19.513007814062256 L36.869317712168794 -15.513007814062254 A40 40 0 0 1 39.68626966596886 -5.000000000000012 M0 -25A25 25 0 1 0 0 25 A25 25 0 1 0 0 -25" fill="#1d0e0b"></path></g></g></svg>