<?xml version="1.0" encoding="utf-8"?>
<svg xmlns="http://www.w3.org/2000/svg" style="margin: auto; background: rgba(241, 242, 243, 0); display: block; shape-rendering: auto;" width="290" height="80" preserveAspectRatio="xMidYMid">
<style type="text/css">
  text {
    text-anchor: middle; font-size: 25px; opacity: 0;
  }
</style>
<g transform="translate(145,40)">
  <g transform="translate(0,0)"><g class="path" style="transform-origin: -44.325px -3.13878px; transform: rotate(0deg); animation: 1s linear -0.605s infinite normal forwards running spin-dbf6d6dd-bbed-4a6f-b0a7-2dd12ba46fcb;"><path d="M1.95 0L1.95-17.53L6.65-17.53L6.65-17.53Q9.47-17.53 10.96-15.98L10.96-15.98L10.96-15.98Q12.45-14.43 12.45-11.85L12.45-11.85L12.45-5L12.45-5Q12.45 0 7.15 0L7.15 0L1.95 0zM11.05-12.10L11.05-12.10Q11.05-13.53 10.44-14.46L10.44-14.46L10.44-14.46Q9.83-15.40 8.88-15.83L8.88-15.83L8.88-15.83Q7.93-16.25 6.90-16.25L6.90-16.25L3.35-16.25L3.35-1.25L6.75-1.25L6.75-1.25Q8.58-1.25 9.81-1.96L9.81-1.96L9.81-1.96Q11.05-2.68 11.05-4.75L11.05-4.75L11.05-12.10" fill="#eb7532" stroke="none" stroke-width="none" transform="translate(-51.524993896484375,5.626216125488281)" style="fill: rgb(230, 38, 31);"></path></g><g class="path" style="transform-origin: -31px -3.12378px; transform: rotate(0deg); animation: 1s linear -0.55s infinite normal forwards running spin-dbf6d6dd-bbed-4a6f-b0a7-2dd12ba46fcb;"><path d="M16.35 0L16.35-17.50L24.70-17.50L24.70-16.20L17.75-16.20L17.75-10.33L22.52-10.33L22.05-8.95L17.75-8.95L17.75-1.25L24.65-1.25L24.65 0L16.35 0" fill="#eb7532" stroke="none" stroke-width="none" transform="translate(-51.524993896484375,5.626216125488281)" style="fill: rgb(235, 117, 50);"></path></g><g class="path" style="transform-origin: -17.58px -3.12378px; transform: rotate(0deg); animation: 1s linear -0.495s infinite normal forwards running spin-dbf6d6dd-bbed-4a6f-b0a7-2dd12ba46fcb;"><path d="M33 0L27.97-17.50L29.47-17.50L33.95-1.73L38.42-17.50L39.92-17.50L34.92 0L33 0" fill="#eb7532" stroke="none" stroke-width="none" transform="translate(-51.524993896484375,5.626216125488281)" style="fill: rgb(247, 208, 56);"></path></g><g class="path" style="transform-origin: -5.64502px -4.01379px; transform: rotate(0deg); animation: 1s linear -0.44s infinite normal forwards running spin-dbf6d6dd-bbed-4a6f-b0a7-2dd12ba46fcb;"><path d="M41.88-8.95L41.88-10.33L49.88-10.33L49.88-8.95L41.88-8.95" fill="#eb7532" stroke="none" stroke-width="none" transform="translate(-51.524993896484375,5.626216125488281)" style="fill: rgb(163, 224, 72);"></path></g><g class="path" style="transform-origin: 1.88998px -11.2838px; transform: rotate(0deg); animation: 1s linear -0.385s infinite normal forwards running spin-dbf6d6dd-bbed-4a6f-b0a7-2dd12ba46fcb;"><path d="M53.42-16.07L53.42-16.07Q53.10-16.07 52.84-16.34L52.84-16.34L52.84-16.34Q52.58-16.60 52.58-16.93L52.58-16.93L52.58-16.93Q52.58-17.25 52.83-17.50L52.83-17.50L52.83-17.50Q53.08-17.75 53.42-17.75L53.42-17.75L53.42-17.75Q53.77-17.75 54.01-17.51L54.01-17.51L54.01-17.51Q54.25-17.28 54.25-16.93L54.25-16.93L54.25-16.93Q54.25-16.57 54-16.32L54-16.32L54-16.32Q53.75-16.07 53.42-16.07L53.42-16.07" fill="#eb7532" stroke="none" stroke-width="none" transform="translate(-51.524993896484375,5.626216125488281)" style="fill: rgb(73, 218, 154);"></path></g><g class="path" style="transform-origin: 0.940002px 1.97622px; transform: rotate(0deg); animation: 1s linear -0.33s infinite normal forwards running spin-dbf6d6dd-bbed-4a6f-b0a7-2dd12ba46fcb;"><path d="M52.70-11.15L51.58-11.23L51-12.53L54.10-12.53L54.10 1.88L54.10 1.88Q54.05 3.33 53.20 4.28L53.20 4.28L53.20 4.28Q52.35 5.23 51 5.23L51 5.23L50.83 4.15L50.83 4.15Q50.83 4.23 51.35 3.99L51.35 3.99L51.35 3.99Q51.88 3.75 52.29 3.14L52.29 3.14L52.29 3.14Q52.70 2.53 52.70 1.40L52.70 1.40L52.70-11.15" fill="#eb7532" stroke="none" stroke-width="none" transform="translate(-51.524993896484375,5.626216125488281)" style="fill: rgb(52, 187, 230);"></path></g><g class="path" style="transform-origin: 9.86502px -0.498779px; transform: rotate(0deg); animation: 1s linear -0.275s infinite normal forwards running spin-dbf6d6dd-bbed-4a6f-b0a7-2dd12ba46fcb;"><path d="M64.67 0L64.78-1.28L64.78-1.28Q64.17-0.53 63.26-0.13L63.26-0.13L63.26-0.13Q62.35 0.28 61.43 0.28L61.43 0.28L61.43 0.28Q56.73 0.28 56.73-4.30L56.73-4.30L56.73-12.53L58.13-12.53L58.13-4.13L58.13-4.13Q58.13-2.53 59.01-1.75L59.01-1.75L59.01-1.75Q59.90-0.98 61.43-0.98L61.43-0.98L61.43-0.98Q62.93-0.98 63.79-1.74L63.79-1.74L63.79-1.74Q64.65-2.50 64.65-4.13L64.65-4.13L64.65-12.53L66.05-12.53L66.05 0L64.67 0" fill="#eb7532" stroke="none" stroke-width="none" transform="translate(-51.524993896484375,5.626216125488281)" style="fill: rgb(67, 85, 219);"></path></g><g class="path" style="transform-origin: 21.69px -0.738785px; transform: rotate(0deg); animation: 1s linear -0.22s infinite normal forwards running spin-dbf6d6dd-bbed-4a6f-b0a7-2dd12ba46fcb;"><path d="M76.45 0L76.45-8.58L76.45-8.58Q76.45-10.10 75.56-10.79L75.56-10.79L75.56-10.79Q74.67-11.48 73.28-11.48L73.28-11.48L73.28-11.48Q72.42-11.48 71.55-11.24L71.55-11.24L71.55-11.24Q70.67-11 70-10.63L70-10.63L70 0L68.60 0L68.60-12.53L70-12.53L69.90-11.68L69.90-11.68Q70.50-12.20 71.42-12.46L71.42-12.46L71.42-12.46Q72.35-12.73 73.35-12.73L73.35-12.73L73.35-12.73Q74.72-12.73 75.70-12.28L75.70-12.28L75.70-12.28Q76.70-11.83 77.26-10.93L77.26-10.93L77.26-10.93Q77.83-10.03 77.83-8.65L77.83-8.65L77.83 0L76.45 0" fill="#eb7532" stroke="none" stroke-width="none" transform="translate(-51.524993896484375,5.626216125488281)" style="fill: rgb(210, 59, 231);"></path></g><g class="path" style="transform-origin: 30.765px -11.2838px; transform: rotate(0deg); animation: 1s linear -0.165s infinite normal forwards running spin-dbf6d6dd-bbed-4a6f-b0a7-2dd12ba46fcb;"><path d="M82.30-16.07L82.30-16.07Q81.97-16.07 81.71-16.34L81.71-16.34L81.71-16.34Q81.45-16.60 81.45-16.93L81.45-16.93L81.45-16.93Q81.45-17.25 81.70-17.50L81.70-17.50L81.70-17.50Q81.95-17.75 82.30-17.75L82.30-17.75L82.30-17.75Q82.65-17.75 82.89-17.51L82.89-17.51L82.89-17.51Q83.13-17.28 83.13-16.93L83.13-16.93L83.13-16.93Q83.13-16.57 82.88-16.32L82.88-16.32L82.88-16.32Q82.63-16.07 82.30-16.07L82.30-16.07" fill="#eb7532" stroke="none" stroke-width="none" transform="translate(-51.524993896484375,5.626216125488281)" style="fill: rgb(230, 38, 31);"></path></g><g class="path" style="transform-origin: 30.75px -0.638779px; transform: rotate(0deg); animation: 1s linear -0.11s infinite normal forwards running spin-dbf6d6dd-bbed-4a6f-b0a7-2dd12ba46fcb;"><path d="M81.58 0L81.58-12.53L82.97-12.53L82.97 0L81.58 0" fill="#eb7532" stroke="none" stroke-width="none" transform="translate(-51.524993896484375,5.626216125488281)" style="fill: rgb(235, 117, 50);"></path></g><g class="path" style="transform-origin: 40.215px -0.648781px; transform: rotate(0deg); animation: 1s linear -0.055s infinite normal forwards running spin-dbf6d6dd-bbed-4a6f-b0a7-2dd12ba46fcb;"><path d="M96.40-4.60L96.40-4.60Q96.40-2.50 95.25-1.13L95.25-1.13L95.25-1.13Q94.10 0.25 91.78 0.25L91.78 0.25L91.78 0.25Q89.45 0.25 88.26-1.14L88.26-1.14L88.26-1.14Q87.08-2.53 87.08-4.60L87.08-4.60L87.08-7.90L87.08-7.90Q87.08-10.28 88.29-11.54L88.29-11.54L88.29-11.54Q89.50-12.80 91.78-12.80L91.78-12.80L91.78-12.80Q93.95-12.80 95.17-11.49L95.17-11.49L95.17-11.49Q96.40-10.18 96.40-7.90L96.40-7.90L96.40-4.60zM95-7.90L95-7.90Q95-9.78 94.14-10.65L94.14-10.65L94.14-10.65Q93.28-11.53 91.78-11.53L91.78-11.53L91.78-11.53Q90.22-11.53 89.35-10.65L89.35-10.65L89.35-10.65Q88.47-9.78 88.47-7.90L88.47-7.90L88.47-4.35L88.47-4.35Q88.47-2.85 89.36-1.93L89.36-1.93L89.36-1.93Q90.25-1 91.78-1L91.78-1L91.78-1Q93.33-1 94.16-1.91L94.16-1.91L94.16-1.91Q95-2.83 95-4.35L95-4.35L95-7.90" fill="#eb7532" stroke="none" stroke-width="none" transform="translate(-51.524993896484375,5.626216125488281)" style="fill: rgb(247, 208, 56);"></path></g><g class="path" style="transform-origin: 50.35px -0.748779px; transform: rotate(0deg); animation: 1s linear 0s infinite normal forwards running spin-dbf6d6dd-bbed-4a6f-b0a7-2dd12ba46fcb;"><path d="M98.75 0L98.75-12.53L100.15-12.53L100.07-11.65L100.07-11.65Q101.25-12.75 103.15-12.75L103.15-12.75L103.15-12.75Q103.82-12.75 105-12.53L105-12.53L104.63-11.25L104.63-11.25Q103.82-11.50 102.95-11.50L102.95-11.50L102.95-11.50Q101.80-11.50 100.97-11.08L100.97-11.08L100.97-11.08Q100.15-10.65 100.15-9.80L100.15-9.80L100.15 0L98.75 0" fill="#eb7532" stroke="none" stroke-width="none" transform="translate(-51.524993896484375,5.626216125488281)" style="fill: rgb(163, 224, 72);"></path></g></g>
</g>
<style id="spin-dbf6d6dd-bbed-4a6f-b0a7-2dd12ba46fcb" data-anikit="">@keyframes spin-dbf6d6dd-bbed-4a6f-b0a7-2dd12ba46fcb
{
  0% {
    animation-timing-function: cubic-bezier(0.5856,0.0703,0.4143,0.9297);
    transform: rotate(0deg);
  }
  100% {
    transform: rotate(360deg);
  }
}</style><style id="spin-dbf6d6dd-bbed-4a6f-b0a7-2dd12ba46fcb" data-anikit="">@keyframes spin-dbf6d6dd-bbed-4a6f-b0a7-2dd12ba46fcb
{
  0% {
    animation-timing-function: cubic-bezier(0.5856,0.0703,0.4143,0.9297);
    transform: rotate(0deg);
  }
  100% {
    transform: rotate(360deg);
  }
}</style></svg>